<svg width="12" height="7" viewBox="0 0 12 7" fill="none" xmlns="http://www.w3.org/2000/svg">
<path d="M12 1.02879C11.894 1.38887 11.615 1.60606 11.3696 1.85755C9.79626 3.46932 8.22296 5.0811 6.64966 6.69288C6.39302 6.95579 6.09733 7.0701 5.73469 6.95579C5.59522 6.91007 5.47806 6.82434 5.37205 6.72146C3.67601 4.97822 1.97439 3.2407 0.278352 1.50318C-0.167975 1.04594 -0.061972 0.354363 0.484778 0.0800173C0.551727 0.0457242 0.635413 0.0457242 0.696783 0H0.953421C1.25469 0.0628708 1.45554 0.280061 1.66196 0.491535C3.07347 1.93756 4.49056 3.38359 5.90206 4.83533C5.98017 4.91535 6.01365 4.90964 6.08617 4.83533C7.54789 3.33215 9.02077 1.83468 10.4825 0.3315C10.6164 0.194328 10.7559 0.0800173 10.94 0.0342931C10.9567 0.0342931 10.979 0.0285776 10.9846 0H11.2636C11.3975 0.0514397 11.5369 0.0857329 11.6597 0.177181C11.8382 0.314354 11.9275 0.508682 11.9944 0.714441V1.02879H12Z" fill="#9C0053"/>
</svg>
