<svg width="21" height="21" viewBox="0 0 21 21" fill="none" xmlns="http://www.w3.org/2000/svg">
<rect x="0.5" y="0.5" width="20" height="20" rx="2.5" fill="#9C0053" stroke="#9C0053"/>
<path d="M9.30965 14.9969C8.97518 15.0242 8.72432 14.8677 8.49139 14.6024C7.51185 13.4799 6.53232 12.3642 5.54682 11.2485C5.28401 10.9492 5.18248 10.6023 5.29596 10.1941C5.4632 9.54782 6.19785 9.29611 6.65775 9.72469C6.7115 9.77912 6.76526 9.83354 6.81901 9.88796C7.5895 10.7655 8.36596 11.6431 9.13047 12.5275C9.1902 12.5955 9.22006 12.6023 9.28576 12.5275C11.0955 10.4594 12.9053 8.39813 14.709 6.34365C14.9718 6.04432 15.2824 5.92187 15.6468 6.05113C15.9215 6.15317 16.1067 6.37086 16.2022 6.67699C16.2142 6.71781 16.2142 6.77223 16.25 6.80625V7.17361C16.1485 7.58858 15.8558 7.84709 15.6049 8.13281C13.7056 10.2961 11.8003 12.4595 9.90096 14.6296C9.73372 14.8201 9.54856 14.9561 9.30965 14.9969Z" fill="white" stroke="white" stroke-width="0.3"/>
</svg>
